<mxfile host="app.diagrams.net" modified="2023-04-25T11:33:51.750Z" agent="Mozilla/5.0 (Windows NT 10.0; Win64; x64) AppleWebKit/537.36 (KHTML, like Gecko) Chrome/112.0.0.0 Safari/537.36" etag="utqxnQVSYkwNdpYL_ESY" version="21.2.1" type="device">
  <diagram id="C5RBs43oDa-KdzZeNtuy" name="Page-1">
    <mxGraphModel dx="1050" dy="573" grid="1" gridSize="10" guides="1" tooltips="1" connect="1" arrows="1" fold="1" page="1" pageScale="1" pageWidth="827" pageHeight="1169" math="0" shadow="0">
      <root>
        <mxCell id="WIyWlLk6GJQsqaUBKTNV-0" />
        <mxCell id="WIyWlLk6GJQsqaUBKTNV-1" parent="WIyWlLk6GJQsqaUBKTNV-0" />
        <mxCell id="5dNwjscR7TVCC-h-iv14-3" style="edgeStyle=orthogonalEdgeStyle;rounded=0;orthogonalLoop=1;jettySize=auto;html=1;entryX=0.5;entryY=0;entryDx=0;entryDy=0;" edge="1" parent="WIyWlLk6GJQsqaUBKTNV-1" source="5dNwjscR7TVCC-h-iv14-0" target="5dNwjscR7TVCC-h-iv14-2">
          <mxGeometry relative="1" as="geometry" />
        </mxCell>
        <mxCell id="5dNwjscR7TVCC-h-iv14-0" value="start" style="strokeWidth=2;html=1;shape=mxgraph.flowchart.start_2;whiteSpace=wrap;" vertex="1" parent="WIyWlLk6GJQsqaUBKTNV-1">
          <mxGeometry x="35" y="40" width="70" height="70" as="geometry" />
        </mxCell>
        <mxCell id="5dNwjscR7TVCC-h-iv14-5" style="edgeStyle=orthogonalEdgeStyle;rounded=0;orthogonalLoop=1;jettySize=auto;html=1;entryX=0.5;entryY=0;entryDx=0;entryDy=0;entryPerimeter=0;" edge="1" parent="WIyWlLk6GJQsqaUBKTNV-1" source="5dNwjscR7TVCC-h-iv14-2" target="5dNwjscR7TVCC-h-iv14-4">
          <mxGeometry relative="1" as="geometry" />
        </mxCell>
        <mxCell id="5dNwjscR7TVCC-h-iv14-2" value="user visits the website login page" style="rounded=1;whiteSpace=wrap;html=1;absoluteArcSize=1;arcSize=14;strokeWidth=2;" vertex="1" parent="WIyWlLk6GJQsqaUBKTNV-1">
          <mxGeometry x="30" y="170" width="80" height="80" as="geometry" />
        </mxCell>
        <mxCell id="5dNwjscR7TVCC-h-iv14-8" style="edgeStyle=orthogonalEdgeStyle;rounded=0;orthogonalLoop=1;jettySize=auto;html=1;" edge="1" parent="WIyWlLk6GJQsqaUBKTNV-1" source="5dNwjscR7TVCC-h-iv14-4" target="5dNwjscR7TVCC-h-iv14-7">
          <mxGeometry relative="1" as="geometry" />
        </mxCell>
        <mxCell id="5dNwjscR7TVCC-h-iv14-12" style="edgeStyle=orthogonalEdgeStyle;rounded=0;orthogonalLoop=1;jettySize=auto;html=1;" edge="1" parent="WIyWlLk6GJQsqaUBKTNV-1" source="5dNwjscR7TVCC-h-iv14-4" target="5dNwjscR7TVCC-h-iv14-11">
          <mxGeometry relative="1" as="geometry" />
        </mxCell>
        <mxCell id="5dNwjscR7TVCC-h-iv14-4" value="user registered?" style="strokeWidth=2;html=1;shape=mxgraph.flowchart.decision;whiteSpace=wrap;" vertex="1" parent="WIyWlLk6GJQsqaUBKTNV-1">
          <mxGeometry x="20" y="320" width="100" height="100" as="geometry" />
        </mxCell>
        <mxCell id="5dNwjscR7TVCC-h-iv14-19" value="" style="edgeStyle=orthogonalEdgeStyle;rounded=0;orthogonalLoop=1;jettySize=auto;html=1;" edge="1" parent="WIyWlLk6GJQsqaUBKTNV-1" source="5dNwjscR7TVCC-h-iv14-7" target="5dNwjscR7TVCC-h-iv14-18">
          <mxGeometry relative="1" as="geometry" />
        </mxCell>
        <mxCell id="5dNwjscR7TVCC-h-iv14-7" value="user tries to log in&amp;nbsp;" style="rounded=1;whiteSpace=wrap;html=1;absoluteArcSize=1;arcSize=14;strokeWidth=2;" vertex="1" parent="WIyWlLk6GJQsqaUBKTNV-1">
          <mxGeometry x="30" y="480" width="80" height="80" as="geometry" />
        </mxCell>
        <mxCell id="5dNwjscR7TVCC-h-iv14-10" value="yes" style="text;html=1;align=center;verticalAlign=middle;resizable=0;points=[];autosize=1;strokeColor=none;fillColor=none;" vertex="1" parent="WIyWlLk6GJQsqaUBKTNV-1">
          <mxGeometry x="35" y="440" width="40" height="30" as="geometry" />
        </mxCell>
        <mxCell id="5dNwjscR7TVCC-h-iv14-15" style="edgeStyle=orthogonalEdgeStyle;rounded=0;orthogonalLoop=1;jettySize=auto;html=1;entryX=0;entryY=0.5;entryDx=0;entryDy=0;" edge="1" parent="WIyWlLk6GJQsqaUBKTNV-1" source="5dNwjscR7TVCC-h-iv14-11" target="5dNwjscR7TVCC-h-iv14-14">
          <mxGeometry relative="1" as="geometry" />
        </mxCell>
        <mxCell id="5dNwjscR7TVCC-h-iv14-11" value="user directed to registration page" style="rounded=1;whiteSpace=wrap;html=1;absoluteArcSize=1;arcSize=14;strokeWidth=2;" vertex="1" parent="WIyWlLk6GJQsqaUBKTNV-1">
          <mxGeometry x="195" y="330" width="80" height="80" as="geometry" />
        </mxCell>
        <mxCell id="5dNwjscR7TVCC-h-iv14-13" value="no" style="text;html=1;align=center;verticalAlign=middle;resizable=0;points=[];autosize=1;strokeColor=none;fillColor=none;" vertex="1" parent="WIyWlLk6GJQsqaUBKTNV-1">
          <mxGeometry x="135" y="340" width="40" height="30" as="geometry" />
        </mxCell>
        <mxCell id="5dNwjscR7TVCC-h-iv14-26" value="" style="edgeStyle=orthogonalEdgeStyle;rounded=0;orthogonalLoop=1;jettySize=auto;html=1;" edge="1" parent="WIyWlLk6GJQsqaUBKTNV-1" source="5dNwjscR7TVCC-h-iv14-14" target="5dNwjscR7TVCC-h-iv14-25">
          <mxGeometry relative="1" as="geometry" />
        </mxCell>
        <mxCell id="5dNwjscR7TVCC-h-iv14-14" value="user data is collected" style="shape=parallelogram;html=1;strokeWidth=2;perimeter=parallelogramPerimeter;whiteSpace=wrap;rounded=1;arcSize=12;size=0.23;" vertex="1" parent="WIyWlLk6GJQsqaUBKTNV-1">
          <mxGeometry x="340" y="340" width="100" height="60" as="geometry" />
        </mxCell>
        <mxCell id="5dNwjscR7TVCC-h-iv14-55" style="edgeStyle=orthogonalEdgeStyle;rounded=0;orthogonalLoop=1;jettySize=auto;html=1;entryX=1;entryY=0.5;entryDx=0;entryDy=0;" edge="1" parent="WIyWlLk6GJQsqaUBKTNV-1" source="5dNwjscR7TVCC-h-iv14-16" target="5dNwjscR7TVCC-h-iv14-51">
          <mxGeometry relative="1" as="geometry" />
        </mxCell>
        <mxCell id="5dNwjscR7TVCC-h-iv14-16" value="database" style="strokeWidth=2;html=1;shape=mxgraph.flowchart.database;whiteSpace=wrap;" vertex="1" parent="WIyWlLk6GJQsqaUBKTNV-1">
          <mxGeometry x="354" y="660" width="60" height="60" as="geometry" />
        </mxCell>
        <mxCell id="5dNwjscR7TVCC-h-iv14-20" style="edgeStyle=orthogonalEdgeStyle;rounded=0;orthogonalLoop=1;jettySize=auto;html=1;entryX=1;entryY=0.5;entryDx=0;entryDy=0;" edge="1" parent="WIyWlLk6GJQsqaUBKTNV-1" source="5dNwjscR7TVCC-h-iv14-18" target="5dNwjscR7TVCC-h-iv14-7">
          <mxGeometry relative="1" as="geometry">
            <Array as="points">
              <mxPoint x="130" y="680" />
              <mxPoint x="130" y="520" />
            </Array>
          </mxGeometry>
        </mxCell>
        <mxCell id="5dNwjscR7TVCC-h-iv14-23" style="edgeStyle=orthogonalEdgeStyle;rounded=0;orthogonalLoop=1;jettySize=auto;html=1;" edge="1" parent="WIyWlLk6GJQsqaUBKTNV-1" source="5dNwjscR7TVCC-h-iv14-18" target="5dNwjscR7TVCC-h-iv14-22">
          <mxGeometry relative="1" as="geometry" />
        </mxCell>
        <mxCell id="5dNwjscR7TVCC-h-iv14-18" value="password correct" style="rhombus;whiteSpace=wrap;html=1;rounded=1;arcSize=14;strokeWidth=2;" vertex="1" parent="WIyWlLk6GJQsqaUBKTNV-1">
          <mxGeometry x="30" y="640" width="80" height="80" as="geometry" />
        </mxCell>
        <mxCell id="5dNwjscR7TVCC-h-iv14-21" value="no" style="text;html=1;align=center;verticalAlign=middle;resizable=0;points=[];autosize=1;strokeColor=none;fillColor=none;" vertex="1" parent="WIyWlLk6GJQsqaUBKTNV-1">
          <mxGeometry x="120" y="590" width="40" height="30" as="geometry" />
        </mxCell>
        <mxCell id="5dNwjscR7TVCC-h-iv14-22" value="got website access" style="shape=parallelogram;html=1;strokeWidth=2;perimeter=parallelogramPerimeter;whiteSpace=wrap;rounded=1;arcSize=12;size=0.23;" vertex="1" parent="WIyWlLk6GJQsqaUBKTNV-1">
          <mxGeometry x="20" y="790" width="100" height="60" as="geometry" />
        </mxCell>
        <mxCell id="5dNwjscR7TVCC-h-iv14-24" value="yes" style="text;html=1;align=center;verticalAlign=middle;resizable=0;points=[];autosize=1;strokeColor=none;fillColor=none;" vertex="1" parent="WIyWlLk6GJQsqaUBKTNV-1">
          <mxGeometry x="65" y="738" width="40" height="30" as="geometry" />
        </mxCell>
        <mxCell id="5dNwjscR7TVCC-h-iv14-29" style="edgeStyle=orthogonalEdgeStyle;rounded=0;orthogonalLoop=1;jettySize=auto;html=1;entryX=0.5;entryY=1;entryDx=0;entryDy=0;" edge="1" parent="WIyWlLk6GJQsqaUBKTNV-1" source="5dNwjscR7TVCC-h-iv14-25" target="5dNwjscR7TVCC-h-iv14-27">
          <mxGeometry relative="1" as="geometry" />
        </mxCell>
        <mxCell id="5dNwjscR7TVCC-h-iv14-33" value="" style="edgeStyle=orthogonalEdgeStyle;rounded=0;orthogonalLoop=1;jettySize=auto;html=1;" edge="1" parent="WIyWlLk6GJQsqaUBKTNV-1" source="5dNwjscR7TVCC-h-iv14-25" target="5dNwjscR7TVCC-h-iv14-32">
          <mxGeometry relative="1" as="geometry" />
        </mxCell>
        <mxCell id="5dNwjscR7TVCC-h-iv14-25" value="field empty" style="rhombus;whiteSpace=wrap;html=1;strokeWidth=2;rounded=1;arcSize=12;" vertex="1" parent="WIyWlLk6GJQsqaUBKTNV-1">
          <mxGeometry x="500" y="330" width="80" height="80" as="geometry" />
        </mxCell>
        <mxCell id="5dNwjscR7TVCC-h-iv14-45" style="edgeStyle=orthogonalEdgeStyle;rounded=0;orthogonalLoop=1;jettySize=auto;html=1;entryX=0;entryY=0;entryDx=0;entryDy=0;" edge="1" parent="WIyWlLk6GJQsqaUBKTNV-1" source="5dNwjscR7TVCC-h-iv14-27" target="5dNwjscR7TVCC-h-iv14-25">
          <mxGeometry relative="1" as="geometry">
            <Array as="points">
              <mxPoint x="540" y="190" />
              <mxPoint x="460" y="190" />
              <mxPoint x="460" y="350" />
            </Array>
          </mxGeometry>
        </mxCell>
        <mxCell id="5dNwjscR7TVCC-h-iv14-27" value="error message displayed" style="whiteSpace=wrap;html=1;strokeWidth=2;rounded=1;arcSize=12;" vertex="1" parent="WIyWlLk6GJQsqaUBKTNV-1">
          <mxGeometry x="480" y="210" width="120" height="60" as="geometry" />
        </mxCell>
        <mxCell id="5dNwjscR7TVCC-h-iv14-35" value="" style="edgeStyle=orthogonalEdgeStyle;rounded=0;orthogonalLoop=1;jettySize=auto;html=1;" edge="1" parent="WIyWlLk6GJQsqaUBKTNV-1" source="5dNwjscR7TVCC-h-iv14-32" target="5dNwjscR7TVCC-h-iv14-34">
          <mxGeometry relative="1" as="geometry" />
        </mxCell>
        <mxCell id="5dNwjscR7TVCC-h-iv14-40" value="" style="edgeStyle=orthogonalEdgeStyle;rounded=0;orthogonalLoop=1;jettySize=auto;html=1;" edge="1" parent="WIyWlLk6GJQsqaUBKTNV-1" source="5dNwjscR7TVCC-h-iv14-32" target="5dNwjscR7TVCC-h-iv14-39">
          <mxGeometry relative="1" as="geometry" />
        </mxCell>
        <mxCell id="5dNwjscR7TVCC-h-iv14-32" value="&amp;nbsp;field data incorrect" style="rhombus;whiteSpace=wrap;html=1;strokeWidth=2;rounded=1;arcSize=12;" vertex="1" parent="WIyWlLk6GJQsqaUBKTNV-1">
          <mxGeometry x="500" y="490" width="80" height="80" as="geometry" />
        </mxCell>
        <mxCell id="5dNwjscR7TVCC-h-iv14-44" style="edgeStyle=orthogonalEdgeStyle;rounded=0;orthogonalLoop=1;jettySize=auto;html=1;entryX=0;entryY=1;entryDx=0;entryDy=0;" edge="1" parent="WIyWlLk6GJQsqaUBKTNV-1" source="5dNwjscR7TVCC-h-iv14-34" target="5dNwjscR7TVCC-h-iv14-32">
          <mxGeometry relative="1" as="geometry">
            <Array as="points">
              <mxPoint x="230" y="530" />
              <mxPoint x="230" y="600" />
              <mxPoint x="520" y="600" />
            </Array>
          </mxGeometry>
        </mxCell>
        <mxCell id="5dNwjscR7TVCC-h-iv14-34" value="incorrect field error" style="whiteSpace=wrap;html=1;strokeWidth=2;rounded=1;arcSize=12;" vertex="1" parent="WIyWlLk6GJQsqaUBKTNV-1">
          <mxGeometry x="300" y="500" width="120" height="60" as="geometry" />
        </mxCell>
        <mxCell id="5dNwjscR7TVCC-h-iv14-36" value="yes" style="text;html=1;align=center;verticalAlign=middle;resizable=0;points=[];autosize=1;strokeColor=none;fillColor=none;" vertex="1" parent="WIyWlLk6GJQsqaUBKTNV-1">
          <mxGeometry x="500" y="288" width="40" height="30" as="geometry" />
        </mxCell>
        <mxCell id="5dNwjscR7TVCC-h-iv14-37" value="no" style="text;html=1;align=center;verticalAlign=middle;resizable=0;points=[];autosize=1;strokeColor=none;fillColor=none;" vertex="1" parent="WIyWlLk6GJQsqaUBKTNV-1">
          <mxGeometry x="510" y="428" width="40" height="30" as="geometry" />
        </mxCell>
        <mxCell id="5dNwjscR7TVCC-h-iv14-38" value="yes" style="text;html=1;align=center;verticalAlign=middle;resizable=0;points=[];autosize=1;strokeColor=none;fillColor=none;" vertex="1" parent="WIyWlLk6GJQsqaUBKTNV-1">
          <mxGeometry x="450" y="508" width="40" height="30" as="geometry" />
        </mxCell>
        <mxCell id="5dNwjscR7TVCC-h-iv14-43" style="edgeStyle=orthogonalEdgeStyle;rounded=0;orthogonalLoop=1;jettySize=auto;html=1;entryX=0.5;entryY=0;entryDx=0;entryDy=0;" edge="1" parent="WIyWlLk6GJQsqaUBKTNV-1" source="5dNwjscR7TVCC-h-iv14-39" target="5dNwjscR7TVCC-h-iv14-49">
          <mxGeometry relative="1" as="geometry">
            <mxPoint x="540" y="790" as="targetPoint" />
          </mxGeometry>
        </mxCell>
        <mxCell id="5dNwjscR7TVCC-h-iv14-52" style="edgeStyle=orthogonalEdgeStyle;rounded=0;orthogonalLoop=1;jettySize=auto;html=1;entryX=1;entryY=0.5;entryDx=0;entryDy=0;entryPerimeter=0;" edge="1" parent="WIyWlLk6GJQsqaUBKTNV-1" source="5dNwjscR7TVCC-h-iv14-39" target="5dNwjscR7TVCC-h-iv14-16">
          <mxGeometry relative="1" as="geometry">
            <mxPoint x="450" y="710" as="targetPoint" />
          </mxGeometry>
        </mxCell>
        <mxCell id="5dNwjscR7TVCC-h-iv14-39" value="both password same" style="rhombus;whiteSpace=wrap;html=1;strokeWidth=2;rounded=1;arcSize=12;" vertex="1" parent="WIyWlLk6GJQsqaUBKTNV-1">
          <mxGeometry x="500" y="650" width="80" height="80" as="geometry" />
        </mxCell>
        <mxCell id="5dNwjscR7TVCC-h-iv14-47" value="yes" style="text;html=1;align=center;verticalAlign=middle;resizable=0;points=[];autosize=1;strokeColor=none;fillColor=none;" vertex="1" parent="WIyWlLk6GJQsqaUBKTNV-1">
          <mxGeometry x="450" y="660" width="40" height="30" as="geometry" />
        </mxCell>
        <mxCell id="5dNwjscR7TVCC-h-iv14-48" value="no" style="text;html=1;align=center;verticalAlign=middle;resizable=0;points=[];autosize=1;strokeColor=none;fillColor=none;" vertex="1" parent="WIyWlLk6GJQsqaUBKTNV-1">
          <mxGeometry x="510" y="738" width="40" height="30" as="geometry" />
        </mxCell>
        <mxCell id="5dNwjscR7TVCC-h-iv14-50" style="edgeStyle=orthogonalEdgeStyle;rounded=0;orthogonalLoop=1;jettySize=auto;html=1;entryX=1;entryY=1;entryDx=0;entryDy=0;" edge="1" parent="WIyWlLk6GJQsqaUBKTNV-1" source="5dNwjscR7TVCC-h-iv14-49" target="5dNwjscR7TVCC-h-iv14-39">
          <mxGeometry relative="1" as="geometry">
            <mxPoint x="600" y="760" as="targetPoint" />
            <Array as="points">
              <mxPoint x="640" y="830" />
              <mxPoint x="640" y="710" />
            </Array>
          </mxGeometry>
        </mxCell>
        <mxCell id="5dNwjscR7TVCC-h-iv14-49" value="both password should match" style="whiteSpace=wrap;html=1;strokeWidth=2;rounded=1;arcSize=12;" vertex="1" parent="WIyWlLk6GJQsqaUBKTNV-1">
          <mxGeometry x="480" y="800" width="120" height="60" as="geometry" />
        </mxCell>
        <mxCell id="5dNwjscR7TVCC-h-iv14-59" style="edgeStyle=orthogonalEdgeStyle;rounded=0;orthogonalLoop=1;jettySize=auto;html=1;entryX=0.5;entryY=0;entryDx=0;entryDy=0;" edge="1" parent="WIyWlLk6GJQsqaUBKTNV-1" source="5dNwjscR7TVCC-h-iv14-51" target="5dNwjscR7TVCC-h-iv14-58">
          <mxGeometry relative="1" as="geometry" />
        </mxCell>
        <mxCell id="5dNwjscR7TVCC-h-iv14-51" value="account &lt;br&gt;activated" style="shape=parallelogram;html=1;strokeWidth=2;perimeter=parallelogramPerimeter;whiteSpace=wrap;rounded=1;arcSize=12;size=0.23;" vertex="1" parent="WIyWlLk6GJQsqaUBKTNV-1">
          <mxGeometry x="200" y="660" width="100" height="60" as="geometry" />
        </mxCell>
        <mxCell id="5dNwjscR7TVCC-h-iv14-58" value="user transfer to login page" style="rounded=1;whiteSpace=wrap;html=1;absoluteArcSize=1;arcSize=14;strokeWidth=2;" vertex="1" parent="WIyWlLk6GJQsqaUBKTNV-1">
          <mxGeometry x="210" y="770" width="80" height="80" as="geometry" />
        </mxCell>
      </root>
    </mxGraphModel>
  </diagram>
</mxfile>
